<?xml version="1.0" encoding="utf-8"?>
<svg xmlns="http://www.w3.org/2000/svg" viewBox="0 0 1688 1698" width="1688px" height="1698px">
  <path
    d="M 790.875 426.573 C 826.292 407.798 861.708 407.798 897.125 426.573 L 1215.875 595.544 C 1251.292 614.319 1269 642.48 1269 680.029 L 1269 1017.971 C 1269 1055.52 1251.292 1083.682 1215.875 1102.456 L 897.125 1271.427 C 861.708 1290.202 826.292 1290.202 790.875 1271.427 L 472.125 1102.456 C 436.708 1083.681 419 1055.52 419 1017.971 L 419 680.029 C 419 642.48 436.708 614.318 472.125 595.544 Z M 269.001 544.19 L 269.001 1153.81 L 844 1458.62 L 1418.999 1153.81 L 1418.999 544.19 L 844 239.38 Z"
    style="stroke: rgb(0, 0, 0); stroke-width: 0;" />
  <path
    d="M 809.625 575.664 C 832.542 563.516 855.458 563.516 878.375 575.664 L 1084.625 684.998 C 1107.542 697.146 1119 715.369 1119 739.665 L 1119 958.334 C 1119 982.631 1107.542 1000.853 1084.625 1013.001 L 878.375 1122.335 C 855.458 1134.483 832.542 1134.483 809.625 1122.335 L 603.375 1013.001 C 580.458 1000.853 569 982.63 569 958.334 L 569 739.666 C 569 715.369 580.458 697.147 603.375 684.999 Z M 719 782.737 L 719 915.263 L 844 981.526 L 969 915.263 L 969 782.737 L 844 716.474 Z"
    style="stroke: rgb(0, 0, 0); stroke-width: 0;" />
</svg>