<?xml version="1.0" encoding="utf-8"?>
<svg xmlns="http://www.w3.org/2000/svg" viewBox="0 0 1675 1675" width="500px" height="500px"
  xmlns:bx="https://boxy-svg.com">
  <rect width="1675" height="1675" />
  <path
    d="M 844 239.38 L 1418.999 544.19 L 1418.999 1153.81 L 844 1458.62 L 269.001 1153.81 L 269.001 544.19 Z"
    bx:shape="n-gon 844 849 663.952 609.62 6 0 1@8d52cf0b"
    style="fill: rgb(255, 255, 255);" />
  <path
    d="M 790.874970643 426.5728125 Q 844 398.411 897.125029357 426.5728125 L 1215.875205499 595.5436875 Q 1269.000234856 623.7055 1269.000234856 680.029125 L 1269.000234856 1017.970875 Q 1269.000234856 1074.2945 1215.875205499 1102.4563125 L 897.125029357 1271.4271875 Q 844 1299.589 790.874970643 1271.4271875 L 472.124794501 1102.4563125 Q 418.999765144 1074.2945 418.999765144 1017.970875 L 418.999765144 680.029125 Q 418.999765144 623.7055 472.124794501 595.5436875 Z"
    bx:shape="n-gon 844 849 490.748 450.589 6 0.125 1@59bf25a2" />
  <path
    d="M 809.624961901 575.664375 Q 844 557.442 878.375038099 575.664375 L 1084.625266695 684.998625 Q 1119.000304794 703.221 1119.000304794 739.66575 L 1119.000304794 958.33425 Q 1119.000304794 994.779 1084.625266695 1013.001375 L 878.375038099 1122.335625 Q 844 1140.558 809.624961901 1122.335625 L 603.374733305 1013.001375 Q 568.999695206 994.779 568.999695206 958.33425 L 568.999695206 739.66575 Q 568.999695206 703.221 603.374733305 684.998625 Z"
    bx:shape="n-gon 844 849 317.543 291.558 6 0.125 1@283e8180"
    style=" fill: rgb(255, 255, 255);" />
  <path d="M 844 716.474 L 969 782.737 L 969 915.263 L 844 981.526 L 719 915.263 L 719 782.737 Z"
    bx:shape="n-gon 844 849 144.338 132.526 6 0 1@3f617c0c" />
</svg>